<svg version="1.1" xmlns="http://www.w3.org/2000/svg" viewBox="0 0 1993.108588765579 483.25837885216305" width="1993.108588765579" height="483.25837885216305">
  <!-- svg-source:excalidraw -->
  
  <defs>
    <style class="style-fonts">
      @font-face {
        font-family: "Virgil";
        src: url("https://excalidraw.com/Virgil.woff2");
      }
      @font-face {
        font-family: "Cascadia";
        src: url("https://excalidraw.com/Cascadia.woff2");
      }
    </style>
  </defs>
  <rect x="0" y="0" width="1993.108588765579" height="483.25837885216305" fill="#ffffff"></rect><g transform="translate(978.059141858487 26.058366645131798) rotate(0 28.849990844726562 12)"><text x="0" y="0" font-family="Virgil, Segoe UI Emoji" font-size="20px" fill="#000000" text-anchor="start" style="white-space: pre;" direction="ltr" dominant-baseline="text-before-edge">GAME</text></g><g stroke-linecap="round"><g transform="translate(1005.2591540655183 51.65837274864742) rotate(0 -116.64631355913355 65.53381554808466)"><path d="M-0.8 0.41 C-39.97 22.27, -195.51 108.35, -234.27 130.11 M0.98 -0.42 C-37.86 21.71, -192.74 109.93, -231.91 131.49" stroke="#000000" stroke-width="1" fill="none"></path></g></g><mask></mask><g transform="translate(702.0591113409089 201.25837885216305) rotate(0 45.439964294433594 12)"><text x="0" y="0" font-family="Virgil, Segoe UI Emoji" font-size="20px" fill="#000000" text-anchor="start" style="white-space: pre;" direction="ltr" dominant-baseline="text-before-edge">scena ogl</text></g><g stroke-linecap="round"><g transform="translate(1005.2591540655183 50.0583666451318) rotate(0 99.54179034310397 71.56996426996774)"><path d="M0.54 -0.58 C33.96 23.31, 166.54 118.83, 199.71 142.81 M-0.63 1.73 C32.74 25.76, 165.76 119.97, 199.03 143.72" stroke="#000000" stroke-width="1" fill="none"></path></g></g><mask></mask><g transform="translate(1182.059141858487 206.0583666451318) rotate(0 27.27997589111328 12)"><text x="0" y="0" font-family="Virgil, Segoe UI Emoji" font-size="20px" fill="#000000" text-anchor="start" style="white-space: pre;" direction="ltr" dominant-baseline="text-before-edge">board</text></g><g stroke-linecap="round"><g transform="translate(1178.059141858487 240.45836054161617) rotate(0 -94.7966337683983 95.40850017514077)"><path d="M-0.49 0.98 C-32.16 32.5, -159.21 157.84, -191.04 189.37 M1.45 0.45 C-29.74 32.07, -156.9 158.55, -188.67 190.36" stroke="#000000" stroke-width="1" fill="none"></path></g></g><mask></mask><g stroke-linecap="round"><g transform="translate(1230.8591296514558 241.25837885216305) rotate(0 80.96402209736408 97.64755710633469)"><path d="M-0.56 1.14 C26.56 33.29, 135.22 161.3, 162.49 193.25 M1.35 0.69 C28.33 32.99, 134.71 162.42, 161.59 194.61" stroke="#000000" stroke-width="1" fill="none"></path></g></g><mask></mask><g transform="translate(946.859190686612 443.65840326622555) rotate(0 24.389968872070312 12)"><text x="0" y="0" font-family="Virgil, Segoe UI Emoji" font-size="20px" fill="#000000" text-anchor="start" style="white-space: pre;" direction="ltr" dominant-baseline="text-before-edge">pionki</text></g><g transform="translate(1363.6591784795808 449.25837885216305) rotate(0 50.50995635986328 12)"><text x="0" y="0" font-family="Virgil, Segoe UI Emoji" font-size="20px" fill="#000000" text-anchor="start" style="white-space: pre;" direction="ltr" dominant-baseline="text-before-edge">boardPart</text></g><g stroke-linecap="round"><g transform="translate(961.1552062966039 36.31773816978685) rotate(0 -361.7140226976543 0.2263487432151976)"><path d="M-0.62 1.18 C-121.38 1.02, -603.34 -0.43, -724.24 -0.73 M1.25 0.75 C-119.61 0.71, -603.88 0.48, -724.68 0.43" stroke="#000000" stroke-width="1" fill="none"></path></g></g><mask></mask><g transform="translate(532.4560829780132 10) rotate(0 38.58997344970703 12)"><text x="0" y="0" font-family="Virgil, Segoe UI Emoji" font-size="20px" fill="#000000" text-anchor="start" style="white-space: pre;" direction="ltr" dominant-baseline="text-before-edge">callback</text></g><g transform="translate(185.4516993477418 22.671538680559678) rotate(0 12.589996337890625 12)"><text x="0" y="0" font-family="Virgil, Segoe UI Emoji" font-size="20px" fill="#000000" text-anchor="start" style="white-space: pre;" direction="ltr" dominant-baseline="text-before-edge">UI</text></g><g stroke-linecap="round"><g transform="translate(218.5925465579058 52.88818036639597) rotate(0 64.77199505438445 85.34181901474486)"><path d="M-0.66 -0.35 C21.15 28.09, 108.14 142.41, 130.21 171.01 M1.19 -1.58 C22.87 26.99, 107.32 143.27, 129.05 172.26" stroke="#000000" stroke-width="1" fill="none"></path></g><g transform="translate(218.5925465579058 52.88818036639597) rotate(0 64.77199505438445 85.34181901474486)"><path d="M103.48 154.97 C109.31 161.73, 115.76 165.31, 129.09 173.97 M104.71 156.24 C112.88 161.69, 122.74 167.69, 129.74 173.04" stroke="#000000" stroke-width="1" fill="none"></path></g><g transform="translate(218.5925465579058 52.88818036639597) rotate(0 64.77199505438445 85.34181901474486)"><path d="M120.01 142.8 C121.83 152.43, 124.26 158.99, 129.09 173.97 M121.23 144.07 C123.45 153.94, 127.28 164.38, 129.74 173.04" stroke="#000000" stroke-width="1" fill="none"></path></g></g><mask></mask><g transform="translate(353.10555448033057 230.2893128806354) rotate(0 51.919960021972656 12)"><text x="0" y="0" font-family="Virgil, Segoe UI Emoji" font-size="20px" fill="#000000" text-anchor="start" style="white-space: pre;" direction="ltr" dominant-baseline="text-before-edge">enterGame</text></g><g stroke-linecap="round"><g transform="translate(61.66079693937917 212.74415410077745) rotate(0 58.272495590194865 -77.84948689670699)"><path d="M-0.64 -0.75 C19.04 -26.76, 97.52 -131.02, 117.18 -157.17 M1.23 1.47 C20.84 -24.26, 97.09 -129.39, 116.35 -155.75" stroke="#000000" stroke-width="1" fill="none"></path></g><g transform="translate(61.66079693937917 212.74415410077745) rotate(0 58.272495590194865 -77.84948689670699)"><path d="M106.8 -126.57 C109.82 -132.85, 110.89 -141.78, 115.64 -155.97 M108.91 -126.12 C110.55 -137.66, 114.03 -146.73, 117.34 -155.79" stroke="#000000" stroke-width="1" fill="none"></path></g><g transform="translate(61.66079693937917 212.74415410077745) rotate(0 58.272495590194865 -77.84948689670699)"><path d="M90.21 -138.65 C96.89 -142.09, 101.75 -148.27, 115.64 -155.97 M92.32 -138.2 C99.62 -145.77, 108.71 -150.76, 117.34 -155.79" stroke="#000000" stroke-width="1" fill="none"></path></g></g><mask></mask><g transform="translate(10 222.49146866548227) rotate(0 54.059959411621094 12)"><text x="0" y="0" font-family="Virgil, Segoe UI Emoji" font-size="20px" fill="#000000" text-anchor="start" style="white-space: pre;" direction="ltr" dominant-baseline="text-before-edge">startGame</text></g><g stroke-linecap="round"><g transform="translate(1044.068285939403 36.01313458963989) rotate(0 289.5975535965958 2.868391207654014)"><path d="M0.78 -0.61 C97.07 0, 481.16 3.93, 577.19 4.83 M-0.28 1.68 C96.44 3.01, 482.87 5.61, 579.47 6.35" stroke="#000000" stroke-width="1" fill="none"></path></g></g><mask></mask><g transform="translate(1625.8001438113085 26.26582002493501) rotate(0 17.559982299804688 12)"><text x="0" y="0" font-family="Virgil, Segoe UI Emoji" font-size="20px" fill="#000000" text-anchor="start" style="white-space: pre;" direction="ltr" dominant-baseline="text-before-edge">Net</text></g><g stroke-linecap="round"><g transform="translate(1616.174715298329 61.41708061051298) rotate(0 -66.04559016730082 67.45710474558685)"><path d="M-0.38 0.1 C-22.41 22.57, -110.68 111.94, -132.7 134.69 M1.62 -0.89 C-20.53 21.73, -111.25 113.18, -133.72 135.8" stroke="#000000" stroke-width="1" fill="none"></path></g><g transform="translate(1616.174715298329 61.41708061051298) rotate(0 -66.04559016730082 67.45710474558685)"><path d="M-120.97 108.34 C-125.72 115.65, -125.75 124.18, -133.96 134.7 M-120.92 109.19 C-123.26 115.11, -128.05 123.36, -134.45 135.21" stroke="#000000" stroke-width="1" fill="none"></path></g><g transform="translate(1616.174715298329 61.41708061051298) rotate(0 -66.04559016730082 67.45710474558685)"><path d="M-106.4 122.8 C-114.86 126.36, -118.62 131.2, -133.96 134.7 M-106.36 123.64 C-112.49 125.76, -120.99 130.32, -134.45 135.21" stroke="#000000" stroke-width="1" fill="none"></path></g></g><mask></mask><g transform="translate(1432.9252461015428 208.6016272134974) rotate(0 46.25996398925781 12)"><text x="0" y="0" font-family="Virgil, Segoe UI Emoji" font-size="20px" fill="#000000" text-anchor="start" style="white-space: pre;" direction="ltr" dominant-baseline="text-before-edge">pawnMove</text></g><g stroke-linecap="round"><g transform="translate(1753.611835787446 193.98054381727746) rotate(0 -41.36829214446607 -67.60306887830164)"><path d="M0.73 -0.88 C-12.94 -23.44, -68.64 -114.09, -82.63 -136.48 M-0.35 1.28 C-14.1 -21.07, -69.49 -112.96, -83.46 -135.47" stroke="#000000" stroke-width="1" fill="none"></path></g><g transform="translate(1753.611835787446 193.98054381727746) rotate(0 -41.36829214446607 -67.60306887830164)"><path d="M-61.48 -116.39 C-67.31 -121.89, -71 -124.85, -83.94 -136.14 M-60.98 -117.17 C-69.89 -124.68, -78.26 -131.09, -82.73 -135.77" stroke="#000000" stroke-width="1" fill="none"></path></g><g transform="translate(1753.611835787446 193.98054381727746) rotate(0 -41.36829214446607 -67.60306887830164)"><path d="M-78.99 -105.7 C-80.39 -113.95, -79.75 -119.55, -83.94 -136.14 M-78.5 -106.48 C-80.65 -118.01, -82.24 -128.56, -82.73 -135.77" stroke="#000000" stroke-width="1" fill="none"></path></g></g><mask></mask><g transform="translate(1703.9006207467812 207.62687344719444) rotate(0 65.29993438720703 12)"><text x="0" y="0" font-family="Virgil, Segoe UI Emoji" font-size="20px" fill="#000000" text-anchor="start" style="white-space: pre;" direction="ltr" dominant-baseline="text-before-edge">opponentMove</text></g><g stroke-linecap="round"><g transform="translate(1642.4924348765887 61.35619335923255) rotate(0 -3.0795545976166068 127.00439708849741)"><path d="M1.01 0.66 C-0.05 43.09, -4.83 211.75, -6.09 254.04 M0.07 -0.03 C-1.19 42.08, -5.88 210.14, -7.16 252.24" stroke="#000000" stroke-width="1" fill="none"></path></g></g><mask></mask><g stroke-linecap="round"><g transform="translate(1637.6187775942362 315.76107003328076) rotate(0 39.83633893607487 42.183668773131615)"><path d="M0.37 0.7 C13.79 14.83, 67.34 70.36, 80.56 84.35 M-0.89 0.02 C12.34 13.83, 65.62 68.72, 79.43 82.5" stroke="#000000" stroke-width="1" fill="none"></path></g><g transform="translate(1637.6187775942362 315.76107003328076) rotate(0 39.83633893607487 42.183668773131615)"><path d="M53.51 69.03 C61.4 71.46, 70.08 76.38, 78.5 81.83 M53.31 69.92 C63.27 75.29, 74.84 79.22, 78.76 82.18" stroke="#000000" stroke-width="1" fill="none"></path></g><g transform="translate(1637.6187775942362 315.76107003328076) rotate(0 39.83633893607487 42.183668773131615)"><path d="M68.14 54.64 C71.53 61.48, 75.78 70.77, 78.5 81.83 M67.94 55.53 C72.16 66.72, 77.9 76.38, 78.76 82.18" stroke="#000000" stroke-width="1" fill="none"></path></g></g><mask></mask><g transform="translate(1720.4709513942278 423.956246828283) rotate(0 71.66993713378906 12)"><text x="0" y="0" font-family="Virgil, Segoe UI Emoji" font-size="20px" fill="#000000" text-anchor="start" style="white-space: pre;" direction="ltr" dominant-baseline="text-before-edge">showLegalMove</text></g><g stroke-linecap="round"><g transform="translate(1535.2719746648352 379.11868906997086) rotate(0 50.10745927097366 -33.42025137343211)"><path d="M-0.34 0.3 C16.42 -10.76, 84.13 -55.91, 100.56 -67.14 M1.68 -0.58 C18.39 -11.45, 83.73 -55.12, 100.2 -66.06" stroke="#000000" stroke-width="1" fill="none"></path></g><g transform="translate(1535.2719746648352 379.11868906997086) rotate(0 50.10745927097366 -33.42025137343211)"><path d="M82.94 -40 C86.44 -51.02, 91.82 -55.9, 100.72 -65.08 M82.83 -42.87 C88.24 -51.09, 94.3 -58.99, 99.4 -66.26" stroke="#000000" stroke-width="1" fill="none"></path></g><g transform="translate(1535.2719746648352 379.11868906997086) rotate(0 50.10745927097366 -33.42025137343211)"><path d="M71.56 -57.08 C78.35 -62.98, 87.11 -62.77, 100.72 -65.08 M71.46 -59.95 C80.91 -62.04, 91.06 -63.8, 99.4 -66.26" stroke="#000000" stroke-width="1" fill="none"></path></g></g><mask></mask><g transform="translate(1484.5859686748133 387.8912126853185) rotate(0 51.739952087402344 12)"><text x="0" y="0" font-family="Virgil, Segoe UI Emoji" font-size="20px" fill="#000000" text-anchor="start" style="white-space: pre;" direction="ltr" dominant-baseline="text-before-edge">legalMoves</text></g><g stroke-linecap="round"><g transform="translate(1874.113041840053 44.78573257109633) rotate(0 -100.85176074250853 -3.5411945367726787)"><path d="M-0.66 -1.17 C-34.16 -2.39, -168.41 -6.91, -201.89 -7.92 M1.2 0.83 C-32.4 -0.14, -169.01 -4.76, -202.9 -6.44" stroke="#000000" stroke-width="1" fill="none"></path></g><g transform="translate(1874.113041840053 44.78573257109633) rotate(0 -100.85176074250853 -3.5411945367726787)"><path d="M-176.26 -15.75 C-181.08 -13.19, -186.44 -9.6, -204.78 -5.22 M-174.21 -16.05 C-181.06 -12.52, -189.31 -11.39, -203.83 -5.86" stroke="#000000" stroke-width="1" fill="none"></path></g><g transform="translate(1874.113041840053 44.78573257109633) rotate(0 -100.85176074250853 -3.5411945367726787)"><path d="M-177.09 4.75 C-181.62 2.64, -186.79 1.56, -204.78 -5.22 M-175.04 4.45 C-181.55 2.9, -189.59 -1.06, -203.83 -5.86" stroke="#000000" stroke-width="1" fill="none"></path></g></g><mask></mask><g transform="translate(1889.708655904251 36.01309740658604) rotate(0 46.69996643066406 12)"><text x="0" y="0" font-family="Virgil, Segoe UI Emoji" font-size="20px" fill="#000000" text-anchor="start" style="white-space: pre;" direction="ltr" dominant-baseline="text-before-edge">takePawn</text></g></svg>